<svg width="20" height="20" viewBox="0 0 20 20" fill="none" xmlns="http://www.w3.org/2000/svg">
<path d="M4.10748 15.8924C5.27292 17.0578 6.75778 17.8515 8.37429 18.173C9.9908 18.4946 11.6664 18.3296 13.1891 17.6988C14.7118 17.0681 16.0133 16 16.929 14.6296C17.8446 13.2592 18.3334 11.648 18.3334 9.99984C18.3334 8.35166 17.8446 6.7405 16.929 5.37009C16.0133 3.99968 14.7118 2.93157 13.1891 2.30084C11.6664 1.67011 9.9908 1.50508 8.37429 1.82663C6.75778 2.14817 5.27292 2.94184 4.10748 4.10728" stroke="#33363F" stroke-width="1.3"/>
<path d="M12.5 10.0002L13.0076 9.59411L13.3324 10.0002L13.0076 10.4062L12.5 10.0002ZM2.5 10.6502C2.14102 10.6502 1.85 10.3591 1.85 10.0002C1.85 9.64118 2.14102 9.35016 2.5 9.35016V10.6502ZM9.67423 5.42744L13.0076 9.59411L11.9924 10.4062L8.6591 6.23955L9.67423 5.42744ZM13.0076 10.4062L9.67423 14.5729L8.6591 13.7608L11.9924 9.59411L13.0076 10.4062ZM12.5 10.6502H2.5V9.35016H12.5V10.6502Z" fill="#33363F"/>
</svg>
