<svg width="20" height="20" viewBox="0 0 20 20" fill="none" xmlns="http://www.w3.org/2000/svg">
<g id="Star">
<path id="Star 1" d="M8.45362 5.52327C9.10913 3.8891 9.43688 3.07202 10.0005 3.07202C10.5641 3.07202 10.8918 3.8891 11.5473 5.52327L11.5779 5.59937C11.9482 6.52259 12.1334 6.9842 12.5107 7.26478C12.8881 7.54535 13.3835 7.58971 14.3743 7.67845L14.5534 7.69449C16.1749 7.83971 16.9856 7.91232 17.1591 8.42813C17.3326 8.94395 16.7305 9.49174 15.5263 10.5873L15.1244 10.953C14.5148 11.5076 14.21 11.7849 14.0679 12.1483C14.0415 12.2161 14.0194 12.2856 14.002 12.3562C13.9086 12.7351 13.9979 13.1374 14.1764 13.9419L14.2319 14.1924C14.56 15.671 14.724 16.4103 14.4376 16.7292C14.3306 16.8483 14.1915 16.9341 14.037 16.9763C13.6235 17.0891 13.0364 16.6108 11.8623 15.654C11.0913 15.0258 10.7059 14.7117 10.2633 14.641C10.0892 14.6132 9.91179 14.6132 9.7377 14.641C9.29511 14.7117 8.90962 15.0258 8.13865 15.654C6.96452 16.6108 6.37746 17.0891 5.96396 16.9763C5.80944 16.9341 5.67035 16.8483 5.56333 16.7292C5.27693 16.4103 5.44096 15.671 5.76902 14.1924L5.82459 13.9419C6.00309 13.1374 6.09235 12.7351 5.99897 12.3562C5.98155 12.2856 5.95952 12.2161 5.93302 12.1483C5.79096 11.7849 5.48616 11.5076 4.87657 10.953L4.47467 10.5873C3.27047 9.49174 2.66837 8.94395 2.84185 8.42813C3.01533 7.91232 3.82609 7.83971 5.4476 7.69449L5.62671 7.67845C6.61748 7.58971 7.11286 7.54535 7.49023 7.26478C7.86761 6.9842 8.05277 6.52259 8.4231 5.59937L8.45362 5.52327Z" stroke="white" stroke-width="2"/>
</g>
</svg>
