<svg width="20" height="21" viewBox="0 0 20 21" fill="none" xmlns="http://www.w3.org/2000/svg">
<path d="M11.875 3.8335H8.125C5.47335 3.8335 4.14752 3.8335 3.32376 4.67033C2.5 5.50717 2.5 6.85404 2.5 9.54778V11.4525C2.5 14.1463 2.5 15.4932 3.32376 16.33C4.14752 17.1668 5.47335 17.1668 8.125 17.1668H11.875C14.5267 17.1668 15.8525 17.1668 16.6762 16.33C17.5 15.4932 17.5 14.1463 17.5 11.4525V9.54778C17.5 6.85404 17.5 5.50717 16.6762 4.67033C15.8525 3.8335 14.5267 3.8335 11.875 3.8335Z" stroke="white" stroke-width="2"/>
<path d="M5.83325 7.1665H8.33325" stroke="white" stroke-width="2" stroke-linecap="round"/>
<path d="M15.8333 13.8335H14.1667C13.5436 13.8335 13.2321 13.8335 13 13.6995C12.848 13.6118 12.7217 13.4855 12.634 13.3335C12.5 13.1014 12.5 12.7899 12.5 12.1668C12.5 11.5438 12.5 11.2322 12.634 11.0002C12.7217 10.8481 12.848 10.7219 13 10.6341C13.2321 10.5002 13.5436 10.5002 14.1667 10.5002H15.8333C16.4564 10.5002 16.7679 10.5002 17 10.6341C17.152 10.7219 17.2783 10.8481 17.366 11.0002C17.5 11.2322 17.5 11.5438 17.5 12.1668C17.5 12.7899 17.5 13.1014 17.366 13.3335C17.2783 13.4855 17.152 13.6118 17 13.6995C16.7679 13.8335 16.4564 13.8335 15.8333 13.8335Z" stroke="white" stroke-width="2"/>
</svg>
