<svg width="20" height="20" viewBox="0 0 20 20" fill="none" xmlns="http://www.w3.org/2000/svg">
<path d="M11.875 3.3335H8.125C5.47335 3.3335 4.14752 3.3335 3.32376 4.17033C2.5 5.00717 2.5 6.35404 2.5 9.04778V10.9525C2.5 13.6463 2.5 14.9932 3.32376 15.83C4.14752 16.6668 5.47335 16.6668 8.125 16.6668H11.875C14.5267 16.6668 15.8525 16.6668 16.6762 15.83C17.5 14.9932 17.5 13.6463 17.5 10.9525V9.04778C17.5 6.35404 17.5 5.00717 16.6762 4.17033C15.8525 3.3335 14.5267 3.3335 11.875 3.3335Z" stroke="black" stroke-width="1.3"/>
<path d="M5.83337 6.6665H8.33337" stroke="black" stroke-width="1.3" stroke-linecap="round"/>
<path d="M15.8333 13.3335H14.1667C13.5436 13.3335 13.2321 13.3335 13 13.1995C12.848 13.1118 12.7217 12.9855 12.634 12.8335C12.5 12.6014 12.5 12.2899 12.5 11.6668C12.5 11.0438 12.5 10.7322 12.634 10.5002C12.7217 10.3481 12.848 10.2219 13 10.1341C13.2321 10.0002 13.5436 10.0002 14.1667 10.0002H15.8333C16.4564 10.0002 16.7679 10.0002 17 10.1341C17.152 10.2219 17.2783 10.3481 17.366 10.5002C17.5 10.7322 17.5 11.0438 17.5 11.6668C17.5 12.2899 17.5 12.6014 17.366 12.8335C17.2783 12.9855 17.152 13.1118 17 13.1995C16.7679 13.3335 16.4564 13.3335 15.8333 13.3335Z" stroke="black" stroke-width="1.3"/>
</svg>
