<svg width="20" height="20" viewBox="0 0 20 20" fill="none" xmlns="http://www.w3.org/2000/svg">
<path d="M5.12047 16.2133L5.12048 16.2133L5.14661 16.2068L5.14662 16.2068L7.10793 15.7164C7.12412 15.7124 7.14028 15.7084 7.15638 15.7044C7.37515 15.65 7.58546 15.5978 7.7769 15.4894C7.96836 15.381 8.12137 15.2275 8.28055 15.0679C8.29226 15.0561 8.30401 15.0444 8.31582 15.0325L14.1741 9.17426L14.1944 9.15399C14.4313 8.91712 14.6408 8.70758 14.7949 8.51774C14.9599 8.31435 15.1052 8.08237 15.1591 7.79022L14.569 7.68139L15.1591 7.79021C15.1945 7.59836 15.1945 7.40164 15.1591 7.20979L14.569 7.31861L15.1591 7.20978C15.1052 6.91763 14.9599 6.68565 14.7949 6.48226C14.6408 6.29242 14.4313 6.08289 14.1944 5.84602L14.1741 5.82574L14.1538 5.80545C13.9169 5.56855 13.7074 5.35899 13.5176 5.20495C13.3142 5.03991 13.0822 4.89464 12.7901 4.84075C12.5982 4.80537 12.4015 4.80537 12.2096 4.84075C11.9175 4.89464 11.6855 5.03991 11.4821 5.20495C11.2923 5.359 11.0827 5.56856 10.8458 5.80546L10.8256 5.82574L4.96729 11.684C4.95549 11.6958 4.9437 11.7076 4.93195 11.7193C4.77232 11.8785 4.61888 12.0315 4.51048 12.2229L5.0326 12.5186L4.51048 12.2229C4.40208 12.4144 4.34982 12.6247 4.29546 12.8435C4.29146 12.8596 4.28744 12.8757 4.28339 12.8919L3.78653 14.8794C3.78412 14.889 3.78168 14.8987 3.77923 14.9085C3.74061 15.0626 3.69694 15.2369 3.68244 15.3851C3.66629 15.5503 3.66777 15.8495 3.90906 16.0908C4.15034 16.3321 4.44957 16.3336 4.6147 16.3174C4.76296 16.3029 4.93722 16.2592 5.09129 16.2206C5.1011 16.2182 5.11083 16.2157 5.12047 16.2133Z" stroke="#FEFEFE" stroke-width="1.2"/>
<path d="M10.4165 6.25L13.7498 9.58333" stroke="white"/>
</svg>
