<svg width="20" height="20" viewBox="0 0 20 20" fill="none" xmlns="http://www.w3.org/2000/svg">
<g id="Arhive_alt_add_fill">
<path id="Rectangle 2" d="M17.5 10H15.237C14.7131 10 14.4511 10 14.23 10.1183C14.0089 10.2367 13.8636 10.4546 13.5729 10.8906L13.0937 11.6094C12.8031 12.0454 12.6578 12.2633 12.4367 12.3817C12.2156 12.5 11.9536 12.5 11.4296 12.5H8.57037C8.0464 12.5 7.78442 12.5 7.56333 12.3817C7.34223 12.2633 7.19691 12.0454 6.90627 11.6094L6.42707 10.8906C6.13642 10.4546 5.9911 10.2367 5.77001 10.1183C5.54891 10 5.28693 10 4.76297 10H2.5" stroke="white" stroke-width="2"/>
<path id="Rectangle 1" d="M4.16667 7.5L2.79289 8.87377C2.60536 9.06131 2.5 9.31566 2.5 9.58088V13.8333C2.5 14.9379 3.39543 15.8333 4.5 15.8333H15.5C16.6046 15.8333 17.5 14.9379 17.5 13.8333V9.58088C17.5 9.31566 17.3946 9.06131 17.2071 8.87377L15.8333 7.5" stroke="white" stroke-width="2" stroke-linecap="round"/>
<path id="Vector 10" d="M7.08325 5.83337L9.99992 8.33337M9.99992 8.33337L12.9166 5.83337M9.99992 8.33337L9.99992 2.50004" stroke="white" stroke-width="2"/>
<path id="Rectangle 3" d="M2.5 10H5.34905C5.92329 10 6.21041 10 6.44032 10.1308C6.5026 10.1662 6.56088 10.2082 6.61418 10.2561C6.81095 10.4328 6.90174 10.7052 7.08333 11.25L7.08333 11.25C7.26493 11.7948 7.35572 12.0672 7.55249 12.2439C7.60578 12.2918 7.66407 12.3338 7.72634 12.3692C7.95626 12.5 8.24338 12.5 8.81762 12.5H11.1824C11.7566 12.5 12.0437 12.5 12.2737 12.3692C12.3359 12.3338 12.3942 12.2918 12.4475 12.2439C12.6443 12.0672 12.7351 11.7948 12.9167 11.25C13.0983 10.7052 13.1891 10.4328 13.3858 10.2561C13.4391 10.2082 13.4974 10.1662 13.5597 10.1308C13.7896 10 14.0767 10 14.6509 10H17.5V11.8333C17.5 13.719 17.5 14.6618 16.9142 15.2475C16.3284 15.8333 15.3856 15.8333 13.5 15.8333H6.5C4.61438 15.8333 3.67157 15.8333 3.08579 15.2475C2.5 14.6618 2.5 13.719 2.5 11.8333V10Z" fill="white"/>
</g>
</svg>
