<svg width="126" height="125" viewBox="0 0 126 125" fill="none" xmlns="http://www.w3.org/2000/svg">
<path d="M107.922 62.5C107.922 66.6799 104.533 70.0683 100.354 70.0683H74.2305L63 47.3608L75.1218 26.3659C77.2116 22.7462 81.8401 21.5059 85.4599 23.5956L85.4614 23.5964C89.0814 25.6862 90.3219 30.315 88.232 33.935L76.1104 54.9316H100.354C104.533 54.9316 107.922 58.3201 107.922 62.5Z" fill="#1A73E8"/>
<path d="M85.4614 101.404L85.46 101.404C81.8402 103.494 77.2117 102.254 75.1218 98.6341L63.0001 77.6392L50.8783 98.6341C48.7884 102.254 44.16 103.494 40.5402 101.404L40.5387 101.404C36.9187 99.3138 35.6782 94.685 37.7681 91.065L49.8897 70.0684L63.0001 69.5801L76.1104 70.0684L88.2321 91.065C90.322 94.685 89.0815 99.3138 85.4614 101.404Z" fill="#EA4335"/>
<path d="M63.0001 47.3608L59.5821 56.6406L49.8897 54.9316L37.7681 33.935C35.6782 30.315 36.9186 25.6862 40.5387 23.5964L40.5402 23.5956C44.16 21.5059 48.7884 22.7462 50.8783 26.3659L63.0001 47.3608Z" fill="#FBBC04"/>
<path d="M61.0469 54.9316L52.2578 70.0684H25.6465C21.4666 70.0684 18.0781 66.6799 18.0781 62.5C18.0781 58.3201 21.4666 54.9316 25.6465 54.9316H61.0469Z" fill="#34A853"/>
<path d="M76.1104 70.0684H49.8896L63 47.3608L76.1104 70.0684Z" fill="#185DB7"/>
</svg>
