<svg width="20" height="21" viewBox="0 0 20 21" fill="none" xmlns="http://www.w3.org/2000/svg">
<path d="M12.5003 3H7.50033C5.65938 3 4.16699 4.49238 4.16699 6.33333V13" stroke="#33363F" stroke-width="2"/>
<path d="M7.66699 10.0833C7.66699 9.08275 7.66848 8.41602 7.72527 7.91222C7.7798 7.42858 7.87449 7.2204 7.97696 7.08686C8.05676 6.98286 8.14985 6.88977 8.25385 6.80997C8.38739 6.7075 8.59558 6.61281 9.07922 6.55828C9.58301 6.50149 10.2497 6.5 11.2503 6.5C12.2509 6.5 12.9176 6.50149 13.4214 6.55828C13.9051 6.61281 14.1133 6.7075 14.2468 6.80997C14.3508 6.88977 14.4439 6.98286 14.5237 7.08686C14.6262 7.2204 14.7209 7.42859 14.7754 7.91222C14.8322 8.41602 14.8337 9.08275 14.8337 10.0833V13.4167C14.8337 14.4172 14.8322 15.084 14.7754 15.5878C14.7209 16.0714 14.6262 16.2796 14.5237 16.4131C14.4439 16.5171 14.3508 16.6102 14.2468 16.69C14.1133 16.7925 13.9051 16.8872 13.4214 16.9417C12.9176 16.9985 12.2509 17 11.2503 17C10.2497 17 9.58301 16.9985 9.07922 16.9417C8.59558 16.8872 8.38739 16.7925 8.25385 16.69C8.14985 16.6102 8.05676 16.5171 7.97696 16.4131C7.87449 16.2796 7.7798 16.0714 7.72527 15.5878C7.66848 15.084 7.66699 14.4172 7.66699 13.4167V10.0833Z" stroke="#33363F" stroke-width="2"/>
</svg>
