<svg width="167" height="38" viewBox="0 0 167 38" fill="none" xmlns="http://www.w3.org/2000/svg">
<path fill-rule="evenodd" clip-rule="evenodd" d="M5.33611 5.34054C8.77982 1.89683 13.3596 0 18.2285 0C23.0974 0 27.6771 1.89683 31.1208 5.34054C34.5645 8.78425 36.4588 13.3615 36.4588 18.2329C36.4588 21.2658 35.7209 24.1846 34.3313 26.7889L29.2544 21.7096C29.6019 20.5989 29.7844 19.4298 29.7844 18.2329C29.7844 15.1442 28.5824 12.2432 26.3991 10.0573C24.2157 7.87387 21.3146 6.67187 18.226 6.67187C15.1373 6.67187 12.2362 7.87641 10.0528 10.0573C5.54658 14.5635 5.54658 21.8972 10.0528 26.406C13.1973 29.5505 17.7213 30.5014 21.6975 29.2563C22.3822 29.0408 23.0492 28.7618 23.6907 28.417L28.5368 33.263C27.9662 33.6535 27.3779 34.0111 26.7744 34.3306C24.1117 35.7456 21.1676 36.4557 18.2234 36.4557C13.5549 36.4557 8.88378 34.678 5.33103 31.1227C-1.77701 24.0121 -1.77701 12.4486 5.33103 5.338L5.33611 5.34054ZM23.6958 28.417L19.9072 24.6284L24.6265 19.9092L28.4176 23.7028L33.2636 28.5489L37.9981 33.2808L33.2789 38.0001L28.5418 33.2631L23.6958 28.417ZM22.3345 18.2329C22.3345 20.499 20.4975 22.336 18.2314 22.336C15.9654 22.336 14.1284 20.499 14.1284 18.2329C14.1284 15.9669 15.9654 14.1299 18.2314 14.1299C20.4975 14.1299 22.3345 15.9669 22.3345 18.2329Z" fill="#1337FF"/>
<path d="M163.494 32.2237L160.818 29.5824C159.881 30.2913 158.835 30.8459 157.68 31.2461C156.536 31.6463 155.33 31.8464 154.061 31.8464C152.437 31.8464 150.91 31.5262 149.481 30.8859C148.052 30.2341 146.794 29.3422 145.708 28.2102C144.621 27.0667 143.77 25.7403 143.152 24.231C142.535 22.7216 142.226 21.1093 142.226 19.3941C142.226 17.679 142.535 16.0724 143.152 14.5745C143.77 13.0651 144.621 11.7387 145.708 10.5952C146.794 9.45178 148.052 8.55989 149.481 7.91955C150.91 7.26778 152.437 6.94189 154.061 6.94189C155.696 6.94189 157.228 7.26778 158.657 7.91955C160.087 8.55989 161.344 9.45178 162.431 10.5952C163.517 11.7387 164.363 13.0651 164.969 14.5745C165.587 16.0724 165.895 17.679 165.895 19.3941C165.895 20.732 165.701 22.007 165.312 23.219C164.923 24.4196 164.392 25.5288 163.717 26.5465L166.444 29.2736L163.494 32.2237ZM154.061 27.6613C154.724 27.6613 155.376 27.5642 156.016 27.3698C156.656 27.1639 157.245 26.8781 157.783 26.5122L155.604 24.3339L158.554 21.3666L160.595 23.4248C160.961 22.8302 161.236 22.1899 161.419 21.5038C161.613 20.8178 161.71 20.1145 161.71 19.3941C161.71 18.2507 161.51 17.1816 161.11 16.1867C160.71 15.1919 160.155 14.3172 159.446 13.5625C158.749 12.7964 157.937 12.2018 157.011 11.7787C156.096 11.3442 155.113 11.1269 154.061 11.1269C153.009 11.1269 152.02 11.3442 151.093 11.7787C150.167 12.2132 149.35 12.8135 148.641 13.5797C147.943 14.3343 147.394 15.2091 146.994 16.2039C146.605 17.1987 146.411 18.2621 146.411 19.3941C146.411 20.5262 146.611 21.5953 147.011 22.6015C147.411 23.5964 147.96 24.4768 148.658 25.2429C149.367 25.9976 150.179 26.5922 151.093 27.0267C152.02 27.4498 153.009 27.6613 154.061 27.6613Z" fill="#FEFEFE"/>
<path d="M134.08 31.5038V7.49121H138.265V31.5038H134.08Z" fill="#FEFEFE"/>
<path d="M130.464 18.5366H127.137V31.5034H122.952V18.5366H120.413V14.3515H122.952V8.96582H127.137V14.3515H130.464V18.5366Z" fill="#FEFEFE"/>
<path d="M112.963 14.3521H117.148V31.504H112.963V14.3521ZM115.09 12.1395C114.473 12.1395 113.952 11.9394 113.529 11.5392C113.106 11.1276 112.895 10.613 112.895 9.99555C112.895 9.38951 113.106 8.88067 113.529 8.46903C113.952 8.05738 114.467 7.85156 115.073 7.85156C115.679 7.85156 116.188 8.05738 116.6 8.46903C117.023 8.88067 117.234 9.38951 117.234 9.99555C117.234 10.613 117.028 11.1276 116.617 11.5392C116.205 11.9394 115.696 12.1395 115.09 12.1395Z" fill="#FEFEFE"/>
<path d="M104.656 31.5037V5.77588H108.841V31.5037H104.656Z" fill="#FEFEFE"/>
<path d="M96.3474 31.5037V5.77588H100.532V31.5037H96.3474Z" fill="#FEFEFE"/>
<path d="M88.6435 14.3513H92.8286V31.5032H88.6435L88.4548 29.3764C87.986 30.1425 87.3628 30.7657 86.5853 31.2459C85.8192 31.7148 84.9101 31.9492 83.8581 31.9492C82.5889 31.9492 81.3997 31.709 80.2905 31.2288C79.1814 30.7485 78.2037 30.0853 77.3576 29.2392C76.5229 28.393 75.8654 27.4153 75.3851 26.3062C74.9163 25.197 74.6819 24.0078 74.6819 22.7386C74.6819 21.5151 74.9049 20.3659 75.3508 19.2911C75.8082 18.2162 76.4428 17.2729 77.2547 16.461C78.0665 15.6492 79.0042 15.0146 80.0676 14.5572C81.131 14.0998 82.2744 13.8711 83.4979 13.8711C84.63 13.8711 85.6419 14.1227 86.5338 14.6258C87.4372 15.1289 88.2033 15.7692 88.8322 16.5468L88.6435 14.3513ZM83.7552 27.9185C84.6471 27.9185 85.4361 27.6955 86.1222 27.2495C86.8083 26.8036 87.3457 26.2033 87.7345 25.4486C88.1232 24.6825 88.3176 23.842 88.3176 22.9273C88.3176 22.0011 88.1232 21.1606 87.7345 20.406C87.3457 19.6398 86.8025 19.0338 86.105 18.5879C85.419 18.1419 84.6357 17.9189 83.7552 17.9189C82.8748 17.9189 82.0686 18.1476 81.3368 18.605C80.6164 19.051 80.039 19.6513 79.6045 20.406C79.1814 21.1606 78.9699 22.0011 78.9699 22.9273C78.9699 23.8535 79.1871 24.6939 79.6216 25.4486C80.0561 26.2033 80.6336 26.8036 81.354 27.2495C82.0858 27.6955 82.8862 27.9185 83.7552 27.9185Z" fill="#FEFEFE"/>
<path d="M52.1387 31.5038L45.9983 7.49121H50.3206L54.5056 23.9055L58.6907 7.49121H62.5155L66.7006 23.9055L70.8685 7.49121H75.1908L69.0847 31.5038H64.3336L60.5945 16.959L56.9069 31.5038H52.1387Z" fill="#FEFEFE"/>
</svg>
